<svg version="1.1" id="Layer_1" xmlns="http://www.w3.org/2000/svg" xmlns:xlink="http://www.w3.org/1999/xlink" x="0px" y="0px"
	 width="100%" viewBox="0 0 352 352" enable-background="new 0 0 352 352" xml:space="preserve">
<path fill="#000000" opacity="1.000000" stroke="none" 
	d="
M149.145538,211.982071 
	C147.317627,214.641632 146.133881,212.573410 144.996048,211.706696 
	C137.708878,206.155670 129.730164,202.239059 120.525719,201.246170 
	C117.569160,200.927231 116.837624,199.183456 116.457726,196.573395 
	C114.207253,181.111908 109.754257,166.377716 101.347794,153.055817 
	C99.243835,149.721619 96.810059,146.595566 94.220909,142.940521 
	C98.803375,141.784500 102.785477,143.021240 106.683548,143.753174 
	C119.229767,146.108917 131.269958,149.784409 140.937622,158.754044 
	C146.412918,163.834000 149.660400,169.748505 149.385376,177.628830 
	C148.990601,188.939926 149.247742,200.273773 149.145538,211.982071 
z"/>
<path fill="#000000" opacity="1.000000" stroke="none" 
	d="
M171.717041,212.736664 
	C171.681335,200.931992 171.815811,189.599442 171.592163,178.273987 
	C171.509827,174.104019 173.019791,172.778183 177.094055,172.770248 
	C187.328400,172.750290 193.021835,175.364853 192.741562,182.602341 
	C192.448792,190.161835 192.891129,197.384842 193.760178,204.865311 
	C194.586823,211.980835 189.399338,215.976532 182.077774,216.197998 
	C179.914673,216.263443 177.746475,216.183533 175.581100,216.144012 
	C173.595596,216.107788 171.896469,215.663040 171.717041,212.736664 
M184.215317,198.456314 
	C182.724716,197.426941 180.831818,196.657364 179.960129,198.655426 
	C178.754471,201.418976 178.946259,204.541946 179.869385,207.423691 
	C180.292709,208.745148 181.737762,208.716263 182.872269,208.134109 
	C186.007233,206.525452 185.919586,203.659760 185.541733,200.764709 
	C185.460953,200.145905 185.012894,199.575027 184.215317,198.456314 
M182.206589,189.672852 
	C185.215195,188.723831 185.684555,186.356247 185.039124,183.818054 
	C184.436920,181.449753 182.567047,180.635880 179.809738,181.095886 
	C180.201019,184.138199 177.159058,187.501419 182.206589,189.672852 
z"/>
<path fill="#000000" opacity="1.000000" stroke="none" 
	d="
M265.690002,202.113159 
	C263.522888,203.284744 263.476593,203.283310 263.406067,205.557510 
	C263.328674,208.053268 263.338196,210.552002 263.328125,213.049515 
	C263.318298,215.492233 261.806335,216.081070 259.714844,216.135483 
	C257.519257,216.192596 256.076416,215.320160 256.071075,213.042496 
	C256.042480,200.888336 256.071289,188.733917 256.128754,176.579803 
	C256.141876,173.802292 257.860291,172.933548 260.420746,172.939377 
	C263.366364,172.946091 263.410797,174.821045 263.434265,176.984055 
	C263.461060,179.447922 263.711090,181.909363 263.865601,184.395752 
	C268.342957,181.071381 267.084534,170.775085 277.084808,173.590424 
	C276.575836,178.187729 274.218201,181.707535 272.245422,185.210358 
	C269.932800,189.316696 270.185638,192.912903 272.035828,197.010941 
	C274.679443,202.866409 276.898804,208.913437 279.299194,214.878265 
	C272.811951,217.299774 271.589233,216.799698 269.303833,211.196228 
	C268.110443,208.270279 266.972198,205.321838 265.690002,202.113159 
z"/>
<path fill="#000000" opacity="1.000000" stroke="none" 
	d="
M206.379822,140.744537 
	C207.579437,140.722992 208.412628,140.687561 209.238739,140.748184 
	C209.536240,140.770035 209.816772,141.022873 210.645493,141.446671 
	C207.139908,149.792786 202.719162,157.719620 198.496124,165.737183 
	C198.013596,166.653259 197.077286,167.203445 196.032043,167.242401 
	C186.739594,167.588928 177.470413,168.906677 168.147980,167.933441 
	C167.884720,167.905960 167.655029,167.556915 166.778458,166.845581 
	C176.612274,153.155441 188.848053,143.385040 206.379822,140.744537 
z"/>
<path fill="#000000" opacity="1.000000" stroke="none" 
	d="
M201.455780,209.922394 
	C199.995712,200.089798 200.586349,190.595016 200.920090,181.144241 
	C201.096451,176.150070 205.895477,172.698944 211.058304,172.679443 
	C216.520981,172.658829 220.608917,176.051712 221.350510,181.514404 
	C222.453018,189.635849 222.107559,197.811356 221.642227,205.947754 
	C221.329269,211.419647 218.031235,215.206497 213.613312,216.171204 
	C208.537186,217.279633 204.923004,215.513489 201.455780,209.922394 
M208.087524,196.467560 
	C208.120270,199.298172 208.100998,202.130676 208.204865,204.958679 
	C208.269089,206.707397 208.698181,208.478165 210.907135,208.427063 
	C212.967255,208.379395 213.696655,206.817810 213.705688,204.971588 
	C213.739960,197.977692 213.737778,190.983505 213.720078,183.989502 
	C213.715332,182.112350 212.937653,180.620865 210.898804,180.552658 
	C208.661453,180.477814 208.239578,182.250473 208.195694,183.994858 
	C208.099335,187.823181 208.117538,191.654373 208.087524,196.467560 
z"/>
<path fill="#000000" opacity="1.000000" stroke="none" 
	d="
M164.378784,185.010040 
	C164.377029,194.808243 164.324799,204.108765 164.395676,213.408325 
	C164.426529,217.455444 162.202499,219.154541 158.553040,219.256485 
	C154.888794,219.358856 150.966766,218.816879 150.902756,214.156082 
	C150.709045,200.050140 150.915680,185.938660 150.989975,171.829468 
	C150.991501,171.540985 151.280396,171.254013 151.713181,170.449844 
	C155.436783,172.022385 159.427261,172.299011 163.788239,170.441803 
	C164.849686,175.364685 164.152405,179.971207 164.378784,185.010040 
z"/>
<path fill="#000000" opacity="1.000000" stroke="none" 
	d="
M231.005768,212.825577 
	C229.244278,210.611908 228.586761,208.453918 228.597687,206.026535 
	C228.632141,198.373428 228.516907,190.718552 228.640457,183.067276 
	C228.741577,176.804688 232.952850,172.695389 238.948456,172.692490 
	C244.920486,172.689606 249.134460,176.796600 249.273346,183.119736 
	C249.430405,190.270584 249.215698,197.429504 249.366592,204.580612 
	C249.466812,209.330246 248.045898,213.214249 243.615891,215.284134 
	C239.137405,217.376648 234.872833,216.785049 231.005768,212.825577 
M237.825500,180.572662 
	C236.299515,181.284668 235.560730,182.640961 235.544937,184.166763 
	C235.472855,191.126892 235.462784,198.089661 235.592957,205.048447 
	C235.625443,206.784500 236.622620,208.436157 238.592941,208.429764 
	C240.867264,208.422379 241.623993,206.659302 241.634048,204.649765 
	C241.668091,197.852524 241.657074,191.054886 241.628403,184.257553 
	C241.619797,182.212967 240.819916,180.718201 237.825500,180.572662 
z"/>
<path fill="#000000" opacity="1.000000" stroke="none" 
	d="
M194.013733,131.747620 
	C196.666122,131.128998 198.909973,130.509979 201.193832,130.134109 
	C202.888290,129.855255 205.422424,128.930496 205.764404,131.411606 
	C206.091751,133.786743 206.487274,137.310898 203.202438,138.131775 
	C195.238602,140.121887 187.755554,142.884445 180.990051,147.716049 
	C174.267700,152.516846 169.432678,158.962173 164.445007,165.639786 
	C162.268860,154.943848 176.890076,138.249466 194.013733,131.747620 
z"/>
<path fill="#000000" opacity="1.000000" stroke="none" 
	d="
M133.908875,140.038452 
	C141.812958,146.333755 148.001114,153.398590 150.677719,163.185989 
	C148.536163,163.675903 148.152084,162.320801 147.580841,161.446915 
	C140.432831,150.512070 130.216370,144.030731 117.548599,141.852219 
	C113.108414,141.088623 111.163383,139.364059 110.585144,135.203629 
	C110.269951,132.935867 108.869415,130.882050 109.027031,127.693413 
	C118.402771,129.750015 126.205467,134.372284 133.908875,140.038452 
z"/>
<path fill="#000000" opacity="1.000000" stroke="none" 
	d="
M166.674530,128.785782 
	C168.748322,126.176270 170.770950,124.051491 173.791885,122.419853 
	C174.321991,138.796677 161.869354,149.539154 158.180222,164.531509 
	C155.387939,157.358902 160.026566,138.910233 166.674530,128.785782 
z"/>
<path fill="#000000" opacity="1.000000" stroke="none" 
	d="
M153.502075,150.721893 
	C154.454971,155.017563 154.338486,158.862823 153.448853,162.784988 
	C144.908630,149.033920 146.786438,132.144104 139.441269,118.083237 
	C148.704956,126.868690 151.590591,138.351456 153.502075,150.721893 
z"/>
<path fill="#000000" opacity="1.000000" stroke="none" 
	d="
M238.497437,238.083267 
	C238.111008,237.194687 237.843826,236.603317 237.511246,235.867188 
	C236.474503,237.264374 237.355835,240.192612 234.741104,239.782852 
	C232.309433,239.401779 232.921509,236.986176 232.862030,235.278412 
	C232.764328,232.472275 232.845413,229.659546 232.867386,226.849716 
	C232.887894,224.228653 233.049759,221.708588 236.690979,221.825104 
	C240.268997,221.939575 242.326385,223.687073 242.220535,227.346893 
	C242.121933,230.755905 240.910233,234.123993 242.134338,237.583878 
	C242.455597,238.491867 242.070496,239.636917 240.838531,239.883240 
	C239.676270,240.115646 239.009064,239.399155 238.497437,238.083267 
z"/>
<path fill="#000000" opacity="1.000000" stroke="none" 
	d="
M220.188141,238.636841 
	C217.773605,234.250259 218.632004,229.925125 219.041580,225.717804 
	C219.268356,223.388321 221.092484,221.887695 223.518600,221.857391 
	C226.017136,221.826202 227.691330,223.501251 227.914459,225.772766 
	C228.250366,229.192703 228.389420,232.732681 227.874191,236.109009 
	C227.283401,239.980545 224.616379,240.800949 220.188141,238.636841 
M222.479340,233.657501 
	C222.622818,234.250092 222.766296,234.842682 223.254990,236.860931 
	C224.121170,232.557556 224.199005,229.740250 223.352264,225.693054 
	C222.048553,228.863266 222.430191,230.976089 222.479340,233.657501 
z"/>
<path fill="#000000" opacity="1.000000" stroke="none" 
	d="
M192.426514,223.656250 
	C193.516708,222.841827 194.317612,222.136795 195.228912,221.938156 
	C197.439453,221.456268 199.449142,222.245193 199.961777,224.469894 
	C200.729889,227.803345 197.504822,226.406052 195.813385,227.261276 
	C197.323425,229.366913 198.950027,231.225281 200.087555,233.345978 
	C201.064224,235.166809 200.936905,237.262527 199.428085,238.920349 
	C198.196869,240.273102 196.499222,240.643997 194.862503,239.989777 
	C192.757156,239.148239 191.183929,237.754868 191.858231,235.236649 
	C193.695160,233.339676 194.796722,235.973618 196.731277,235.723953 
	C195.539307,231.580750 189.601532,229.288055 192.426514,223.656250 
z"/>
<path fill="#000000" opacity="1.000000" stroke="none" 
	d="
M248.016144,223.449722 
	C251.046814,221.233078 253.697647,220.924408 255.981964,223.461166 
	C255.288162,226.450302 252.259415,224.898438 251.585999,226.847076 
	C251.144989,229.324921 254.635818,228.869156 254.530930,230.922058 
	C254.658066,233.235977 251.217804,232.750092 251.482651,235.119354 
	C251.600555,235.359360 251.679474,235.711472 251.895035,235.926819 
	C253.033707,237.064377 256.185181,235.639771 255.734390,238.614304 
	C255.449493,240.494186 253.472900,240.164856 252.020844,240.224304 
	C249.613892,240.322861 247.682373,239.786163 247.717361,236.794708 
	C247.767715,232.489883 247.811523,228.184982 248.016144,223.449722 
z"/>
<path fill="#000000" opacity="1.000000" stroke="none" 
	d="
M211.959839,233.850800 
	C211.870071,235.451004 211.867050,236.620743 211.669632,237.756683 
	C211.499695,238.734589 211.126785,239.781723 209.883408,239.781403 
	C208.394348,239.781006 208.010986,238.638412 207.870682,237.425735 
	C207.352615,232.947617 208.937683,228.145538 205.657135,224.068588 
	C205.200272,223.500809 205.909515,222.398605 206.785782,222.164139 
	C208.891785,221.600632 211.069199,221.431931 213.109360,222.325073 
	C214.163284,222.786453 214.420212,224.050140 213.739822,224.865005 
	C211.590576,227.438904 212.056610,230.460693 211.959839,233.850800 
z"/>
</svg>